<?xml version="1.0" encoding="UTF-8" standalone="no"?>
<!-- Created with Inkscape (http://www.inkscape.org/) -->

<svg
   xmlns:dc="http://purl.org/dc/elements/1.1/"
   xmlns:cc="http://creativecommons.org/ns#"
   xmlns:rdf="http://www.w3.org/1999/02/22-rdf-syntax-ns#"
   xmlns:svg="http://www.w3.org/2000/svg"
   xmlns="http://www.w3.org/2000/svg"
   xmlns:xlink="http://www.w3.org/1999/xlink"
   xmlns:sodipodi="http://sodipodi.sourceforge.net/DTD/sodipodi-0.dtd"
   xmlns:inkscape="http://www.inkscape.org/namespaces/inkscape"
   width="64px"
   height="64px"
   id="svg2985"
   version="1.1"
   inkscape:version="0.48.4 r9939"
   sodipodi:docname="New document 2">
  <defs
     id="defs2987" />
  <sodipodi:namedview
     id="base"
     pagecolor="#606060"
     bordercolor="#666666"
     borderopacity="1.0"
     inkscape:pageopacity="1"
     inkscape:pageshadow="2"
     inkscape:zoom="5.6568542"
     inkscape:cx="28.353129"
     inkscape:cy="32.729994"
     inkscape:current-layer="layer6"
     showgrid="true"
     inkscape:document-units="px"
     inkscape:grid-bbox="true"
     inkscape:window-width="1918"
     inkscape:window-height="1007"
     inkscape:window-x="0"
     inkscape:window-y="25"
     inkscape:window-maximized="1" />
  <metadata
     id="metadata2990">
    <rdf:RDF>
      <cc:Work
         rdf:about="">
        <dc:format>image/svg+xml</dc:format>
        <dc:type
           rdf:resource="http://purl.org/dc/dcmitype/StillImage" />
        <dc:title></dc:title>
      </cc:Work>
    </rdf:RDF>
  </metadata>
  <g
     inkscape:groupmode="layer"
     id="layer2"
     inkscape:label="image"
     style="display:none"
     sodipodi:insensitive="true">
    <image
       y="0"
       x="0"
       id="image3001"
       xlink:href="./cur_old.png"
       height="64"
       width="64" />
  </g>
  <g
     inkscape:groupmode="layer"
     id="layer4"
     inkscape:label="whitepoint"
     style="display:inline"
     sodipodi:insensitive="true">
    <rect
       style="fill:#ffffff;fill-opacity:1;stroke:none"
       id="rect3855"
       width="3"
       height="3"
       x="60"
       y="60" />
  </g>
  <g
     id="layer1"
     inkscape:label="hover"
     inkscape:groupmode="layer"
     style="display:inline"
     sodipodi:insensitive="true">
    <path
       sodipodi:type="arc"
       style="fill:#000000;fill-opacity:1;stroke:#ffffff;stroke-width:0.98327762;stroke-opacity:1"
       id="path3004"
       sodipodi:cx="16.454546"
       sodipodi:cy="15.659091"
       sodipodi:rx="3.340909"
       sodipodi:ry="3.340909"
       d="m 19.795455,15.659091 a 3.340909,3.340909 0 1 1 -6.681818,0 3.340909,3.340909 0 1 1 6.681818,0 z"
       transform="matrix(0.91323062,0,0,0.91323062,1.4732048,1.1996386)" />
    <path
       style="fill:#ffffff;fill-opacity:1;stroke:#000000;stroke-width:0.89795917;stroke-opacity:1;display:inline"
       d="m 16.5,6.4375 c -4.99874,0 -9.0625,4.06376 -9.0625,9.0625 0,4.99874 4.06376,9.0625 9.0625,9.0625 4.99874,0 9.0625,-4.06376 9.0625,-9.0625 0,-4.99874 -4.06376,-9.0625 -9.0625,-9.0625 z m 0,2 c 3.894171,0 7.0625,3.168329 7.0625,7.0625 0,3.894171 -3.168329,7.0625 -7.0625,7.0625 -3.894171,0 -7.0625,-3.168329 -7.0625,-7.0625 0,-3.894171 3.168329,-7.0625 7.0625,-7.0625 z"
       id="path3811"
       inkscape:connector-curvature="0" />
  </g>
  <g
     inkscape:groupmode="layer"
     id="layer5"
     inkscape:label="idle"
     style="display:inline"
     sodipodi:insensitive="true">
    <path
       style="fill:#ffffff;fill-opacity:1;stroke:#000000;stroke-width:1;stroke-linecap:butt;stroke-linejoin:miter;stroke-miterlimit:4;stroke-opacity:1;stroke-dasharray:none"
       d="m 15.5,47 0,-7.3 -1,1 -1,-1.4 3,-3 3,3 -1,1.4 -1,-1 0,7.3"
       id="path3878"
       inkscape:connector-curvature="0"
       sodipodi:nodetypes="ccccccccc" />
    <path
       sodipodi:nodetypes="ccccccccc"
       inkscape:connector-curvature="0"
       id="path3882"
       d="m 17,46.5 7.3,0 -1,-1 1.4,-1 3,3 -3,3 -1.4,-1 1,-1 -7.3,0"
       style="fill:#ffffff;fill-opacity:1;stroke:#000000;stroke-width:1;stroke-linecap:butt;stroke-linejoin:miter;stroke-miterlimit:4;stroke-opacity:1;stroke-dasharray:none" />
    <path
       sodipodi:nodetypes="ccccccccc"
       inkscape:connector-curvature="0"
       id="path3880"
       d="m 15.5,48 0,7.3 -1,-1 -1,1.4 3,3 3,-3 -1,-1.4 -1,1 0,-7.3"
       style="fill:#ffffff;fill-opacity:1;stroke:#000000;stroke-width:1;stroke-linecap:butt;stroke-linejoin:miter;stroke-miterlimit:4;stroke-opacity:1;stroke-dasharray:none" />
    <path
       style="fill:#ffffff;fill-opacity:1;stroke:#000000;stroke-width:1;stroke-linecap:butt;stroke-linejoin:miter;stroke-miterlimit:4;stroke-opacity:1;stroke-dasharray:none"
       d="m 16,46.5 -7.3,0 1,-1 -1.4,-1 -3,3 3,3 1.4,-1 -1,-1 7.3,0"
       id="path3884"
       inkscape:connector-curvature="0"
       sodipodi:nodetypes="ccccccccc" />
    <path
       sodipodi:type="arc"
       style="fill:#000000;fill-opacity:1;stroke:#ffffff;stroke-width:0.98327762;stroke-opacity:1;display:inline"
       id="path3004-4"
       sodipodi:cx="16.454546"
       sodipodi:cy="15.659091"
       sodipodi:rx="3.340909"
       sodipodi:ry="3.340909"
       d="m 19.795455,15.659091 a 3.340909,3.340909 0 1 1 -6.681818,0 3.340909,3.340909 0 1 1 6.681818,0 z"
       transform="matrix(0.91323062,0,0,0.91323062,1.4732048,33.199638)" />
  </g>
  <g
     inkscape:groupmode="layer"
     id="layer6"
     inkscape:label="rotate"
     style="display:inline">
    <path
       style="fill:#ffffff;fill-opacity:1;stroke:#000000;stroke-width:1;stroke-linecap:butt;stroke-linejoin:miter;stroke-miterlimit:4;stroke-opacity:1;stroke-dasharray:none;display:inline"
       d="m 45.494653,14.5 c -4.425409,0.217234 -5.385247,-0.47314 -7.772582,-2.222457 l 1.959706,-0.550785 -0.767182,-1.539946 -4.57774,1.142038 1.333372,5.155259 1.705521,-0.22627 -0.592015,-2.21408 c 2.27821,1.534414 4.505103,2.704385 8.71092,2.456241"
       id="path3884-8"
       inkscape:connector-curvature="0"
       sodipodi:nodetypes="ccccccccc" />
    <path
       sodipodi:nodetypes="ccccccccc"
       inkscape:connector-curvature="0"
       id="path3917"
       d="m 51.555605,14.5 c 4.425409,0.217234 5.385247,-0.47314 7.772582,-2.222457 l -1.959706,-0.550785 0.767182,-1.539946 4.57774,1.142038 -1.333372,5.155259 -1.705521,-0.22627 0.592015,-2.21408 c -2.27821,1.534414 -4.505103,2.704385 -8.71092,2.456241"
       style="fill:#ffffff;fill-opacity:1;stroke:#000000;stroke-width:1;stroke-linecap:butt;stroke-linejoin:miter;stroke-miterlimit:4;stroke-opacity:1;stroke-dasharray:none;display:inline" />
    <path
       sodipodi:type="arc"
       style="fill:#000000;fill-opacity:1;stroke:#ffffff;stroke-width:0.98327762;stroke-opacity:1;display:inline"
       id="path3004-4-3"
       sodipodi:cx="16.454546"
       sodipodi:cy="15.659091"
       sodipodi:rx="3.340909"
       sodipodi:ry="3.340909"
       d="m 19.795455,15.659091 a 3.340909,3.340909 0 1 1 -6.681818,0 3.340909,3.340909 0 1 1 6.681818,0 z"
       transform="matrix(0.91323062,0,0,0.91323062,33.473225,1.1996378)" />
    <rect
       style="fill:#ffffff;fill-opacity:1;stroke:#000000;stroke-width:1;stroke-linejoin:miter;stroke-miterlimit:4;stroke-opacity:1;stroke-dasharray:none"
       id="rect3938"
       width="8"
       height="2"
       x="32.5"
       y="23.5" />
    <path
       style="fill:#ffffff;fill-opacity:1;stroke:#000000;stroke-width:1;stroke-linejoin:miter;stroke-miterlimit:4;stroke-opacity:1;stroke-dasharray:none"
       d="M 58.5 20.5 L 58.5 23.5 L 55.5 23.5 L 55.5 25.5 L 58.5 25.5 L 58.5 28.5 L 60.5 28.5 L 60.5 25.5 L 63.5 25.5 L 63.5 23.5 L 60.5 23.5 L 60.5 20.5 L 58.5 20.5 z "
       id="rect3940" />
  </g>
</svg>
